<svg xmlns:dc="http://purl.org/dc/elements/1.1/" xmlns:cc="http://creativecommons.org/ns#" xmlns:rdf="http://www.w3.org/1999/02/22-rdf-syntax-ns#" xmlns:svg="http://www.w3.org/2000/svg" xmlns="http://www.w3.org/2000/svg" xmlns:sodipodi="http://sodipodi.sourceforge.net/DTD/sodipodi-0.dtd" xmlns:inkscape="http://www.inkscape.org/namespaces/inkscape" version="1.1" id="Layer_1" x="0px" y="0px" width="100px" height="100px" viewBox="0 0 100 100" enable-background="new 0 0 100 100" xml:space="preserve" inkscape:version="0.48.4 r9939" sodipodi:docname="open_box_icon.svg"><metadata id="metadata9"><rdf:RDF><cc:Work rdf:about=""><dc:format>image/svg+xml</dc:format><dc:type rdf:resource="http://purl.org/dc/dcmitype/StillImage"/><dc:title/></cc:Work></rdf:RDF></metadata><defs id="defs7"/><sodipodi:namedview pagecolor="#ffffff" bordercolor="#666666" borderopacity="1" objecttolerance="10" gridtolerance="10" guidetolerance="10" inkscape:pageopacity="0" inkscape:pageshadow="2" inkscape:window-width="1197" inkscape:window-height="795" id="namedview5" showgrid="false" inkscape:zoom="3.337544" inkscape:cx="50.622674" inkscape:cy="49.876625" inkscape:window-x="0" inkscape:window-y="0" inkscape:window-maximized="0" inkscape:current-layer="Layer_1"/>
<path d="m 55.385503,1.8686853 a 2.0557362,2.0557362 0 0 0 -1.74057,1.3675909 L 47.718705,19.68881 35.907692,3.5678134 A 2.0557362,2.0557362 0 0 0 34.12568,2.6975283 2.0557362,2.0557362 0 0 0 33.296837,2.9461812 L 1.0962863,19.896021 A 2.0557362,2.0557362 0 0 0 0.39176974,22.921298 L 14.772196,42.399109 c -0.532359,0.613814 -0.826657,1.377119 -0.787401,2.196434 l 1.782012,35.806018 c 0.06523,1.317794 0.93639,2.464164 2.237876,2.90095 l 43.762911,14.670521 c 0.361336,0.121787 0.707239,0.164178 1.077496,0.165769 0.900515,0.0037 1.793811,-0.31522 2.445087,-0.953169 l 25.23827,-24.740964 c 0.615092,-0.602017 0.990762,-1.395981 0.994612,-2.237876 l 0.12433,-35.64025 c 0.002,-0.477636 -0.0939,-0.911666 -0.2901,-1.326149 l 8.49564,-20.223769 A 2.0557362,2.0557362 0 0 0 98.361009,10.24 L 56.007135,1.9101274 A 2.0557362,2.0557362 0 0 0 55.385503,1.8686854 z M 56.960305,6.2615532 95.045639,13.762582 87.834707,31.002517 51.28273,21.843802 56.960305,6.2615532 z M 33.628374,7.4219334 44.900639,22.838414 18.170452,40.036906 5.1576173,22.423992 33.628374,7.4219334 z M 50.163792,25.988017 c 11.670503,2.933492 23.348685,5.851336 35.018617,8.785736 L 61.767594,54.37589 C 57.919344,53.233402 54.155151,52.079642 50.371003,50.936192 L 50.163792,25.988017 z m -4.102773,1.367591 0.165769,22.337319 C 38.421303,47.327584 30.642088,44.968758 22.687646,42.606319 L 46.061019,27.355608 z M 87.337401,39.166621 87.171632,69.543717 65.082966,91.217962 64.668545,58.147126 87.337401,39.166621 z M 18.460547,46.211787 59.819813,58.685874 60.192792,92.751321 20.076791,79.282623 18.460547,46.211787 z m 63.282164,8.122661 -1.989224,6.050554 3.978447,-3.85412 -1.989223,-2.196434 z m 1.077496,3.978446 -2.154992,2.030666 0,7.874008 2.154992,-2.030665 0,-7.874009 z m -6.174881,0.95317 -1.989223,6.009112 3.978446,-3.812678 -1.989223,-2.196434 z m 1.036054,3.937004 -2.11355,2.072108 0,7.874008 2.11355,-2.030665 0,-7.915451 z m 6.796513,2.610856 -10.567749,10.153327 0,2.32076 10.567749,-10.153327 0,-2.32076 z" id="path3" inkscape:connector-curvature="0" style="fill:#000000;stroke:none"/>
</svg>